<svg viewBox="0 0 720 720" style="enable-background:new 0 0 720 720" xml:space="preserve">
  <style>
    .st1,.st2{display:inline}.st2,.st3{fill:#fff}
  </style>
  <g id="Layer_3_00000062160355571616229030000015185124923498639786_">
    <path class="st3" d="M389.7 109.3h46.1s9.4-84.2-64.3-91.1c-81.5-7.7-90.1 65.4-90.1 65.4v185.5s9.7 69.7 79.4 68.6 75.1-64.3 75.1-64.3v-74H365v42.9h24.7s9.7 40.7-25.7 49.3c0 0-31.1 4.3-34.3-30V85.7s3.6-32.7 40.8-24.9c-.1 0 22.3 2.2 19.2 48.5zM392.1 467.2h46.1s9.4-84.2-64.3-91.1c-81.5-7.7-90.1 65.4-90.1 65.4V627s9.7 69.7 79.4 68.6 75.1-64.3 75.1-64.3v-74h-70.8v42.9h24.7s9.7 40.7-25.7 49.3c0 0-31.1 4.3-34.3-30V443.6s3.6-32.7 40.8-24.9c-.2 0 22.2 2.2 19.1 48.5z"/>
  </g>
</svg>
