<svg viewBox="0 0 720 720" style="enable-background:new 0 0 720 720" xml:space="preserve">
  <style>
    .st1,.st2{display:inline}.st2,.st3{fill:#fff}
  </style>
  <g id="Layer_3_00000062160355571616229030000015185124923498639786_">
    <path class="st3" d="M415.1 73.8c-10.8-12.2-27.5-23.2-53.2-26 0 0-76.5-1.8-74.7 0v300.1h87.6s63.1-12.8 59.6-75.9V127.5c-.1-19.6-6.3-39.1-19.3-53.7zm-28.7 193.5c0 44.4-54.9 37.4-54.9 37.4V89.8c50.2-7 54.9 33.9 54.9 33.9v143.6zM415.4 421.4c-10.8-12.2-27.5-23.2-53.2-26 0 0-76.5-1.8-74.7 0v300.1H375s63.1-12.8 59.6-75.9V475.1c0-19.6-6.2-39.1-19.2-53.7zm-28.7 193.5c0 44.4-54.9 37.4-54.9 37.4V437.4c50.2-7 54.9 33.9 54.9 33.9v143.6z"/>
  </g>
</svg>
