<svg viewBox="0 0 720 720" style="enable-background:new 0 0 720 720" xml:space="preserve">
  <style>
    .st1,.st2{display:inline}.st2,.st3{fill:#fff}
  </style>
  <g id="Layer_3_00000062160355571616229030000015185124923498639786_">
    <path class="st3" d="M399.4 418.9c-10.4-14.5-29.1-29.3-62.1-30.6-33.1-1.3-51.4 13.1-61.5 27.8-8.2 12-11.9 26.6-11.9 41.1v157.9c0 15.3 3.7 30.6 11.9 43.4 9.7 15.1 26.9 29.9 56.8 28.6 0 0 73-2.5 77.4-58.7l1.7-168c.3-14.7-3.6-29.5-12.3-41.5zm-64.1 225.5c-31.3.1-29-37.5-29-37.5l.9-139.5s-1.9-39.2 33.5-35.3c0 0 25.5-2.2 26.9 34v140.8c-.1 0 2.6 37.5-32.3 37.5zM396.7 71.7c-10.4-14.5-29.1-29.3-62.1-30.6-33.1-1.3-51.4 13.1-61.5 27.8-8.2 12-11.9 26.6-11.9 41.1v158c0 15.3 3.7 30.6 11.9 43.4 9.7 15.1 26.9 29.9 56.8 28.6 0 0 73-2.5 77.4-58.7l1.7-168c.2-14.8-3.7-29.5-12.3-41.6zm-64.1 225.6c-31.3.1-29-37.5-29-37.5l.9-139.5S302.6 81.1 338 85c0 0 25.5-2.2 26.9 34v140.8c-.1-.1 2.5 37.4-32.3 37.5z"/>
  </g>
</svg>
