<svg viewBox="0 0 720 720" style="enable-background:new 0 0 720 720" xml:space="preserve">
  <style>
    .st1,.st2{display:inline}.st2,.st3{fill:#fff}
  </style>
  <g id="Layer_3_00000062160355571616229030000015185124923498639786_">
    <path class="st3" d="m298.2 250.5 45.7-.2s-4.1 34.6 16.5 46.3c17.2 9.8 40.3-.7 44-20.2 1.9-9.8-.4-22.6-13.3-38.4-25.5-31.2-58.9-63.5-71.6-75.5-5.1-4.8-9.5-10.2-12.7-16.4-5.9-11.3-12.1-30-5.6-52.6 7.8-27.9 31-49.5 59.5-54.5 15.9-2.8 35.4-1 55.5 13.1 0 0 35.7 30.4 21.4 71.5l-37.5-1.8s5.1-24.5-12.4-36.4c-14.1-9.6-34.5-4.4-41.9 11-5.6 11.6-5.6 29 16.8 52.3 26.3 27.4 48.3 50.4 61.9 64.7 16 16.8 23.6 36.3 23.4 59.5-.1 21-5.2 48.3-35.4 61.6-61.5 27.3-96.5-10.7-96.5-10.7s-19.5-23.5-17.8-73.3zM295 586.5l45.7-.2s-4.1 34.6 16.5 46.3c17.2 9.8 40.3-.7 44-20.2 1.9-9.8-.4-22.6-13.3-38.4-25.5-31.2-58.9-63.5-71.6-75.5-5.1-4.8-9.5-10.2-12.7-16.4-5.9-11.3-12.1-30-5.6-52.6 7.9-27.8 31.1-49.4 59.5-54.4 15.9-2.8 35.4-1 55.5 13.1 0 0 35.7 30.4 21.4 71.5l-37.5-1.8s5.1-24.5-12.4-36.4c-14.1-9.6-34.5-4.4-41.9 11-5.6 11.6-5.6 29 16.8 52.3 26.3 27.4 48.3 50.4 61.9 64.7 16 16.8 23.6 36.3 23.4 59.5-.1 21-5.2 48.3-35.4 61.6-61.6 27.3-96.5-10.7-96.5-10.7s-19.5-23.6-17.8-73.4z"/>
  </g>
</svg>
