<svg viewBox="0 0 720 720" style="enable-background:new 0 0 720 720" xml:space="preserve">
  <style>
    .st1,.st2{display:inline}.st2,.st3{fill:#fff}
  </style>
  <g id="Layer_3_00000062160355571616229030000015185124923498639786_">
    <path class="st3" d="M425.6 278.4c7.4-9.2 10.8-21 10.9-32.8l.8-143.8c.1-15.2-4.8-30.4-14.9-41.7-10.5-11.7-28-23.4-57.2-27.1-32.5-4.1-52.1 10.1-63.7 25.3-10.2 13.5-15 30.3-15 47.2V236c1.8 99.7 77.7 96 77.7 96l70.4-.9V293l-31.1-.3c10-2.3 17.1-8.1 22.1-14.3zm-31.3-172.8v167.2c-.6 25.1-33.7 24-33.7 24-9.2-.7-15.9-6.7-20.4-13.2-5.6-8.1-8.2-17.9-8.2-27.7V103.3c-1.1-32 29.1-29.7 29.1-29.7 36.6 1.2 33.2 32 33.2 32zM424.8 619.7c7.4-9.2 10.8-21 10.9-32.8l.8-143.8c.1-15.2-4.8-30.4-14.9-41.7-10.5-11.7-28-23.4-57.2-27.1-32.5-4.1-52.1 10.1-63.7 25.3-10.2 13.5-15 30.3-15 47.2v130.5c1.8 99.7 77.7 96 77.7 96l70.4-.9v-38.2l-31.1-.3c10-2.2 17.1-8 22.1-14.2zm-31.3-172.8v167.2c-.6 25.1-33.7 24-33.7 24-9.2-.7-15.9-6.7-20.4-13.2-5.6-8.1-8.2-17.9-8.2-27.7V444.6c-1.1-32 29.1-29.7 29.1-29.7 36.7 1.2 33.2 32 33.2 32z"/>
  </g>
</svg>
