<svg viewBox="0 0 720 720" style="enable-background:new 0 0 720 720" xml:space="preserve">
  <style>
    .st1,.st2{display:inline}.st2,.st3{fill:#fff}
  </style>
  <g id="Layer_3_00000062160355571616229030000015185124923498639786_">
    <path class="st3" d="M317.9 29s-16.1 1.5-31.8 15c-14.8 12.7-22.6 31.9-22.6 51.5v256h48.9V232s59.1 34.9 95.2-12.1c10.5-13.6 15.3-30.8 15.3-48v-68.6c.1 0 11-83.3-105-74.3zm59.7 142.7s-.1 19.5-30.4 23.3c-15.2 1.9-24.4-5-29.8-12.4-4.8-6.6-7.1-14.7-7.1-22.9l-.4-45.9c-.1-11.4 4-22.6 12.3-30.4 5.6-5.2 13.3-9.2 23.4-8.4.3 0 .5 0 .8.1 18 1.8 31.2 17.9 31.2 36v60.6zM316.9 386.2s-16.1 1.5-31.8 15c-14.8 12.7-22.6 31.9-22.6 51.5v256h48.9V589.1s59.1 34.9 95.2-12.1c10.5-13.6 15.3-30.8 15.3-48v-68.6c.1.1 11-83.3-105-74.2zm59.8 142.7s-.1 19.5-30.4 23.3c-15.2 1.9-24.4-5-29.8-12.4-4.8-6.6-7.1-14.7-7.1-22.9L309 471c-.1-11.4 4-22.6 12.3-30.4 5.6-5.2 13.3-9.2 23.4-8.4.3 0 .5 0 .8.1 18 1.8 31.2 17.9 31.2 36v60.6z"/>
  </g>
</svg>
