<svg viewBox="0 0 720 720" style="enable-background:new 0 0 720 720" xml:space="preserve">
  <style>
    .st1,.st2{display:inline}.st2,.st3{fill:#fff}
  </style>
  <g id="Layer_3_00000062160355571616229030000015185124923498639786_">
    <path class="st3" d="M277.9 384.3h44.2V599s-1.4 15 7.1 27.2c10.5 15.1 34.2 13.7 42.9-2.5 4-7.4 4.5-15.6 4.1-32.6V384.3h44.5V610s0 73.1-73.1 71.5-70.3-71.3-70.3-71.3l.6-225.9zM273.7 36.3h44.2v214.6s-1.4 15 7.1 27.2c10.5 15.1 34.2 13.7 42.9-2.5 4-7.4 4.5-15.6 4.1-32.6V36.3h44.5V262s0 73.1-73.1 71.5c-73.1-1.6-70.3-71.3-70.3-71.3l.6-225.9z"/>
  </g>
</svg>
