<svg viewBox="0 0 720 720" style="enable-background:new 0 0 720 720" xml:space="preserve">
  <style>
    .st0{display:none}.st1,.st2{display:inline}.st2,.st3{fill:#fff}
  </style>
  <g id="Layer_3_00000062160355571616229030000015185124923498639786_">
    <path class="st3" d="M404.3 466.1h42.5s18.5-83.1-74.8-82.2c1.2.3-61.9-5.2-61.9 67.4v142.6c0 16.7 4.2 33.3 13.5 47.1 10 15 23.1 25.8 52.7 26.4 0 0 71.4 6.4 68.6-77.6h-38.8s2 40.1-31.4 39.7c-26.1-.3-24-45.2-24-45.2v-133s4.2-29.3 33.2-24c23.3 4.3 20.4 38.8 20.4 38.8zM406.6 136.5h42.5s18.5-83.1-74.8-82.2c1.2.3-61.9-5.2-61.9 67.4v142.6c0 16.7 4.2 33.3 13.5 47.1 10 15 23.1 25.8 52.7 26.4 0 0 71.4 6.4 68.6-77.6h-38.8s2 40.1-31.4 39.7c-26.1-.3-24-45.2-24-45.2V121.8s4.2-29.3 33.2-24c23.4 4.2 20.4 38.7 20.4 38.7z"/>
  </g>
</svg>
