<svg viewBox="0 0 720 720" style="enable-background:new 0 0 720 720" xml:space="preserve">
  <style>
    .st1,.st2{display:inline}.st2,.st3{fill:#fff}
  </style>
  <g id="Layer_2">
    <path class="st3" d="M409.9 197.9c-5.7-5.9-13-10.7-22.1-10.7 0 0 29.4-9.8 28.2-47.8-.5-15.2-7.3-26.1-15.2-33.7C389.9 95.3 375 90.3 360 90.5l-60.6 1v255.2h82.2s29.9-3.1 39.6-45.2c1.6-7 2.1-14.2 2.1-21.4V233c.1-12.9-4.4-25.7-13.4-35.1zm-71.6-70.8s39.7-6.2 39.7 19.6-39.7 19.6-39.7 19.6v-39.2zm44.3 161.3c-5 26.3-43.7 21.8-43.7 21.8v-108c43.1-5 43.7 20.7 43.7 20.7v65.5zM411.9 480c-5.7-5.9-13-10.7-22.1-10.7 0 0 29.4-9.8 28.2-47.8-.5-15.2-7.3-26.1-15.2-33.7-10.8-10.4-25.7-15.4-40.7-15.1l-60.6 1v255.2h82.2s29.9-3.1 39.6-45.2c1.6-7 2.1-14.2 2.1-21.4v-47.1c-.1-13-4.5-25.9-13.5-35.2zm-71.6-70.8S380 403 380 428.8s-39.7 19.6-39.7 19.6v-39.2zm44.2 161.2c-5 26.3-43.7 21.8-43.7 21.8v-108c43.1-5 43.7 20.7 43.7 20.7v65.5z"/>
  </g>
</svg>
