<svg viewBox="0 0 720 720" style="enable-background:new 0 0 720 720" xml:space="preserve">
  <style>
    .st1,.st2{display:inline}.st2,.st3{fill:#fff}
  </style>
  <g id="Layer_3_00000062160355571616229030000015185124923498639786_">
    <path class="st3" d="M353.7 185.6s90.6-4.1 63.6-100.1c0 0-25.7-61.4-95.3-39.2-16.2 5.3-30.8 14.7-41 28.2-5.1 6.7-9 14.5-8.5 21.9V329h44.6V214l66.3 115h50l-79.7-143.4zm-39-70.7c0-18.5 15-33.5 33.5-33.5s33.5 15 33.5 33.5-15 33.5-33.5 33.5c-18.6-.1-33.5-15-33.5-33.5zM356.4 510.7s90.6-4.1 63.6-100.1c0 0-25.7-61.4-95.3-39.2-16.1 5.1-30.8 14.6-40.9 28.1-5.1 6.7-9 14.5-8.5 21.9V654h44.6V539.1L386.2 654h50l-79.8-143.3zm-39-70.7c0-18.5 15-33.5 33.5-33.5s33.5 15 33.5 33.5-15 33.5-33.5 33.5c-18.6-.1-33.5-15-33.5-33.5z"/>
  </g>
</svg>
